<svg width="226" height="108" viewBox="0 0 226 108" fill="none" xmlns="http://www.w3.org/2000/svg">
<path d="M93.605 93.4146C96.1765 93.4146 96.3644 91.2753 96.3644 87.2485V70.6608C96.3776 69.8174 96.3106 68.9747 96.1645 68.1441C99.6261 68.0317 102.887 66.2015 102.887 66.2015V87.2485C102.887 91.2753 103.076 93.4146 105.647 93.4146V93.7922H93.605V93.4146ZM94.9293 51.1331C94.9355 50.3206 95.1809 49.5281 95.6347 48.8552C96.0885 48.1822 96.7304 47.6588 97.4798 47.3507C98.2292 47.0427 99.0527 46.9637 99.8468 47.1237C100.641 47.2837 101.37 47.6755 101.943 48.25C102.515 48.8245 102.906 49.556 103.066 50.3525C103.225 51.1491 103.146 51.9752 102.839 52.727C102.532 53.4788 102.011 54.1228 101.34 54.578C100.669 55.0333 99.8791 55.2795 99.0692 55.2858C98.5234 55.2934 97.9817 55.1913 97.4759 54.9853C96.9702 54.7794 96.5108 54.4738 96.1249 54.0866C95.7389 53.6995 95.4342 53.2386 95.2289 52.7313C95.0235 52.224 94.9216 51.6805 94.9293 51.1331H94.9293Z" fill="#F8F8F8"/>
<path d="M31.6735 40.0867L31.9874 40.3384C28.7886 46.5045 25.3391 50.1537 21.8893 50.1537C18.1264 50.1537 18.4397 46.0011 19.067 42.918L20.3213 36.9407C16.8091 45.4977 11.7288 50.1537 6.71102 50.1537C2.50876 50.1537 0 46.6932 0 40.5271C0 29.1387 8.40433 15.6741 20.2586 15.6741C22.0147 15.6741 23.5201 15.9258 24.7119 16.4921L26.4679 8.37547C27.2833 4.41163 26.5933 3.02739 24.5238 2.46112L24.5865 2.08353L34.4334 0.196045H34.6842L25.7153 42.4776C25.5272 43.2955 25.088 45.3089 26.1545 45.3089C27.2206 45.309 29.5413 42.9809 31.6735 40.0867ZM22.5793 26.2445C22.8349 25.0239 22.9611 23.7796 22.9558 22.5323C22.9558 19.1347 22.0147 16.555 19.1925 16.555C12.9204 16.555 6.711 29.5163 6.711 39.5833C6.711 44.1135 8.02824 46.4415 10.2236 46.4415C14.363 46.4415 20.3839 37.3182 22.5792 26.2445H22.5793Z" fill="#F8F8F8"/>
<path d="M65.6681 40.3384C62.4694 46.5044 58.9572 50.1537 55.5073 50.1537C51.8071 50.1537 52.0578 46.001 52.7479 42.918L54.0648 36.8778C50.5526 45.4977 45.4097 50.1537 40.3291 50.1537C36.1896 50.1537 33.6182 46.6932 33.6182 40.5271C33.6182 29.1387 42.0225 15.6741 53.9394 15.6741C57.0128 15.6741 59.3961 16.555 60.7761 18.3167L64.6647 16.0515H64.9782L59.396 42.4776C59.2079 43.2955 58.7687 45.3089 59.7725 45.3089C60.9013 45.3089 63.1593 42.9809 65.3547 40.0867L65.6681 40.3384ZM56.1973 26.2445C56.4529 25.0239 56.5791 23.7796 56.5738 22.5323C56.5738 19.1347 55.6958 16.555 52.8105 16.555C46.6011 16.555 40.3918 29.5163 40.3918 39.5833C40.3918 44.1135 41.7091 46.4415 43.9044 46.4415C48.0438 46.4415 54.002 37.3182 56.1973 26.2445Z" fill="#F8F8F8"/>
<path d="M69.2435 42.918L73.383 23.3501C73.6965 21.9659 74.0099 20.33 73.0065 20.33C72.1911 20.33 70.6858 21.84 68.5536 24.4826L68.2397 24.231C70.9369 18.8827 74.3237 15.674 77.3971 15.674C80.9093 15.674 80.7839 19.1975 80.0313 22.9096L75.8918 42.4775C75.7037 43.3584 75.2645 45.3089 76.2679 45.3089C77.3971 45.3089 79.6547 42.9808 81.8501 40.0866L82.164 40.3383C78.9652 46.5043 75.4527 50.1536 72.0032 50.1536C68.3024 50.1537 68.5536 46.001 69.2435 42.918ZM75.4525 6.73957C75.4587 5.92717 75.7041 5.13472 76.1579 4.46182C76.6117 3.78891 77.2537 3.26556 78.0031 2.95754C78.7524 2.64952 79.5759 2.57056 80.3699 2.73058C81.1639 2.89061 81.893 3.28249 82.4657 3.85697C83.0383 4.43145 83.4289 5.1629 83.5884 5.95942C83.7479 6.75593 83.6692 7.58197 83.3621 8.33374C83.0551 9.0855 82.5334 9.72945 81.8626 10.1847C81.1918 10.6399 80.4018 10.8861 79.592 10.8923C79.0463 10.8999 78.5046 10.7977 77.9989 10.5917C77.4932 10.3858 77.0339 10.0802 76.6479 9.69301C76.262 9.30586 75.9574 8.84502 75.7521 8.33774C75.5467 7.83045 75.4449 7.28702 75.4525 6.73957Z" fill="#F8F8F8"/>
<path d="M108.838 92.691L108.336 84.3857H108.713C111.159 89.7968 113.981 93.6977 119.061 93.6977C122.574 93.6977 125.773 91.8731 125.773 87.8462C125.773 84.1969 123.138 82.8757 118.497 80.3589L116.051 79.0376C112.978 77.4016 109.152 75.1995 109.152 69.6626C109.152 63.6853 113.856 60.099 120.002 60.099C122.511 60.099 126.149 60.6652 128.595 61.8606V68.7819H128.219C126.462 64.1259 123.327 60.9799 119.25 60.9799C115.8 60.9799 113.479 63.1821 113.479 66.328C113.479 69.8515 116.302 71.4874 119.124 72.9975L121.508 74.2557C125.773 76.5208 130.1 78.5342 130.1 84.3856C130.1 90.6146 125.208 94.5785 118.058 94.5785C114.859 94.5786 111.159 93.8236 108.838 92.691Z" fill="#F8F8F8"/>
<path d="M164.158 93.4461V93.8236H152.115V93.4461C154.687 93.4461 154.875 91.3068 154.875 87.28V71.8021C154.875 67.3977 153.871 64.126 149.418 64.126C147.098 64.126 144.338 65.1326 141.954 66.8314V87.2801C141.954 91.3069 142.143 93.4462 144.714 93.4462V93.8237H132.672V93.4462C135.244 93.4462 135.432 91.3069 135.432 87.2801V53.1779C135.432 49.1511 134.366 48.0186 132.233 47.2636V46.886L141.704 44.621H141.955V66.2651C145.216 62.9304 149.23 60.0991 153.37 60.0991C158.387 60.0991 161.398 63.6225 161.398 69.9143V87.28C161.398 91.3068 161.586 93.4461 164.158 93.4461Z" fill="#F8F8F8"/>
<path d="M173.377 77.6535C173.104 79.2543 172.957 80.8742 172.939 82.4982C172.939 88.3498 175.008 90.9294 178.395 90.9294C182.033 90.9294 185.984 88.1609 189.434 83.9453L189.81 84.197C185.169 91.5585 180.339 94.6415 175.322 94.6415C169.928 94.6415 166.165 91.181 166.165 83.9453C166.165 74.3187 172.813 60.0991 185.859 60.0991C190.876 60.0991 193.322 62.1125 193.322 65.1955C193.322 70.9211 185.608 74.0671 173.377 77.6535ZM173.565 76.5838C183.224 73.1232 187.678 69.5998 187.678 64.6292C187.678 62.6158 186.988 61.0428 184.855 61.0428C180.402 61.0428 175.385 68.3414 173.565 76.5838Z" fill="#F8F8F8"/>
<path d="M226 92.0618V92.4394L217.784 94.5786H217.533L216.341 88.7901C214.02 91.9989 210.822 94.5786 206.494 94.5786C199.344 94.5786 194.075 87.9092 194.075 78.0938C194.075 67.2089 200.723 60.0991 209.818 60.0991C212.066 60.0971 214.281 60.6366 216.278 61.672V53.1779C216.278 49.1511 215.212 48.0186 213.08 47.2636V46.886L222.55 44.621H222.801V85.5183C222.801 89.5451 223.867 91.3068 226 92.0618ZM216.278 87.9092V70.6694C216.278 65.0067 213.958 60.9799 209.567 60.9799C203.734 60.9799 201.1 68.2156 201.1 76.0804C201.1 84.4485 203.734 91.3067 209.63 91.3067C212.327 91.3068 214.522 89.7968 216.278 87.9092Z" fill="#F8F8F8"/>
<path d="M44.9995 81.3027C44.9995 70.8582 52.3377 59.9733 62.3728 59.9733C69.5229 59.9733 74.2897 65.0697 74.2897 73.1863C74.2897 84.0084 66.8261 94.4529 56.9792 94.4529C49.829 94.4528 44.9995 89.4193 44.9995 81.3027ZM67.8295 69.7886C67.8295 64.5034 66.3242 60.8541 62.6866 60.8541C55.7245 60.8541 51.5224 75.64 51.5224 84.6375C51.5224 89.8597 53.0277 93.5719 56.6653 93.5719C63.6273 93.5719 67.8295 78.786 67.8295 69.7885V69.7886Z" fill="#F8F8F8"/>
<path d="M41.6134 76.4147C41.6134 87.2997 34.9648 94.4096 25.8705 94.4096C23.6226 94.4116 21.4071 93.8722 19.4103 92.8366V101.457C19.4103 105.483 19.5984 107.622 22.1702 107.622V108H10.1279V107.622C12.6994 107.622 12.8874 105.483 12.8874 101.457V62.613L19.1595 58.4221H19.4103V65.5928C21.731 62.4467 24.9297 59.93 29.1946 59.93C36.3447 59.93 41.6134 66.5994 41.6134 76.4147ZM34.5886 78.4282C34.5886 70.0601 31.9545 63.2019 26.0586 63.2019C23.3617 63.2019 21.1664 64.7118 19.4103 66.5995V83.8393C19.4103 89.502 21.731 93.5288 26.1212 93.5288C31.9545 93.5287 34.5886 86.293 34.5886 78.4282Z" fill="#F8F8F8"/>
<path d="M7.58496 75.9385V74.8281C13.8808 68.8156 22.0369 59.9301 29.1947 59.9301C36.3525 59.9301 30.1745 63.2018 26.0586 63.2018C21.9428 63.2018 13.3661 70.7943 7.58496 75.9385Z" fill="#F8F8F8"/>
<path d="M126.252 22.5323C126.252 37.0666 108.377 64.1217 95.8329 64.1217C94.2649 64.1217 92.1327 63.6813 90.8154 62.4858L93.0107 57.2635H93.3869C94.8922 59.4028 97.401 61.4162 99.659 61.4162C103.485 61.4162 108.377 57.8298 108.377 46.001C108.377 35.6823 105.116 21.1481 101.666 21.1481C100.6 21.1481 99.847 22.5323 98.9063 25.7411L98.5928 25.6153C99.2201 19.4492 101.164 15.674 104.3 15.674C110.196 15.674 113.834 29.4533 113.834 42.6664C113.834 46.1269 113.52 48.6436 113.019 50.7828C118.349 43.4213 121.548 34.8643 121.548 26.559C121.548 22.2805 120.482 18.6942 118.099 16.8065V16.4291L123.618 15.6741C125.5 17.1841 126.252 19.7008 126.252 22.5323Z" fill="#F8F8F8"/>
<path d="M91.6369 8.1794C92.4523 4.21568 91.7623 2.83153 89.6927 2.26515L89.7554 1.88762L99.6024 0H99.8533L83.4594 86.6732C83.2714 87.4912 82.7695 89.5046 83.836 89.5046C84.9648 89.5046 87.5362 86.9248 89.6061 84.2192L89.9196 84.4709C86.7836 90.3853 83.2087 94.3492 79.6338 94.3492C75.6824 94.3492 76.1212 90.1336 76.8112 87.1135L91.6369 8.1794Z" fill="#F8F8F8"/>
</svg>
